HIERARCHY
ROOT Hips
{
	OFFSET 0.000000 0.000000 0.000000 
	CHANNELS 6 Xposition Yposition Zposition Zrotation Yrotation Xrotation
	JOINT LeftUpLeg
	{
		OFFSET 1.363060 -1.794630 0.839290 
		CHANNELS 3 Zrotation Yrotation Xrotation
		JOINT LeftLeg
		{
			OFFSET 2.448110 -6.726130 0.000000 
			CHANNELS 3 Zrotation Yrotation Xrotation
			JOINT LeftFoot
			{
				OFFSET 2.562200 -7.039590 0.000000 
				CHANNELS 3 Zrotation Yrotation Xrotation
				JOINT LeftToeBase
				{
					OFFSET 0.157640 -0.433110 2.322550 
					CHANNELS 3 Zrotation Yrotation Xrotation
					End Site
					{
						OFFSET 0.000000 0.000000 0.000000 
					}
				}
			}
		}
	}
	JOINT RightUpLeg
	{
		OFFSET -1.305520 -1.794630 0.839290 
		CHANNELS 3 Zrotation Yrotation Xrotation
		JOINT RightLeg
		{
			OFFSET -2.542530 -6.985550 0.000000 
			CHANNELS 3 Zrotation Yrotation Xrotation
			JOINT RightFoot
			{
				OFFSET -2.568260 -7.056230 0.000000 
				CHANNELS 3 Zrotation Yrotation Xrotation
				JOINT RightToeBase
				{
					OFFSET -0.164730 -0.452590 2.363150 
					CHANNELS 3 Zrotation Yrotation Xrotation
					End Site
					{
						OFFSET 0.000000 0.000000 0.000000 
					}
				}
			}
		}
	}
	JOINT Spine
	{
		OFFSET 0.028270 2.035590 -0.193380 
		CHANNELS 3 Zrotation Yrotation Xrotation
		JOINT Spine1
		{
			OFFSET 0.056720 2.048850 -0.042750 
			CHANNELS 3 Zrotation Yrotation Xrotation
			JOINT Neck1
			{
				OFFSET -0.054170 1.746240 0.172020 
				CHANNELS 3 Zrotation Yrotation Xrotation
				JOINT Head
				{
					OFFSET 0.104070 1.761360 -0.123970 
					CHANNELS 3 Zrotation Yrotation Xrotation
					End Site
					{
						OFFSET 0.000000 0.000000 0.000000 
					}
				}
			}
			JOINT LeftArm
			{
				OFFSET 3.362410 1.200890 -0.311210 
				CHANNELS 3 Zrotation Yrotation Xrotation
				JOINT LeftForeArm
				{
					OFFSET 4.983000 -0.000000 -0.000000 
					CHANNELS 3 Zrotation Yrotation Xrotation
					JOINT LeftHand
					{
						OFFSET 3.483560 -0.000000 -0.000000 
						CHANNELS 3 Zrotation Yrotation Xrotation
						JOINT LeftHandIndex1
						{
							OFFSET 0.715260 -0.000000 -0.000000 
							CHANNELS 3 Zrotation Yrotation Xrotation
							End Site
							{
								OFFSET 0.000000 0.000000 0.000000 
							}
						}
					}
				}
			}
			JOINT RightArm
			{
				OFFSET -3.136600 1.374050 -0.404650 
				CHANNELS 3 Zrotation Yrotation Xrotation
				JOINT RightForeArm
				{
					OFFSET -5.241900 -0.000000 -0.000000 
					CHANNELS 3 Zrotation Yrotation Xrotation
					JOINT RightHand
					{
						OFFSET -3.444170 -0.000000 -0.000000 
						CHANNELS 3 Zrotation Yrotation Xrotation
						JOINT RightHandIndex1
						{
							OFFSET -0.622530 -0.000000 -0.000000 
							CHANNELS 3 Zrotation Yrotation Xrotation
							End Site
							{
								OFFSET 0.000000 0.000000 0.000000 
							}
						}
					}
				}
			}
		}
	}
}
MOTION
Frames: 6
Frame Time: 0.041667
-34.616742 17.541918 -6.401998 -19.353867 -88.176554 51.559234 -21.734443 -13.307469 -43.180598 0.835021 5.642766 12.196225 -0.026728 4.988312 1.896385 0.003500 0.382100 1.049800 18.098323 21.483436 -51.088292 -2.631357 -12.259643 31.066835 0.914586 -12.654609 -14.933866 -0.336300 -3.726800 10.309400 1.617616 -0.876611 0.680345 -0.475550 -0.511558 -5.066340 5.211644 2.177824 -10.664773 0.019400 0.236200 -5.501400 -76.644605 0.769682 36.243630 22.297096 -32.816860 -7.273247 -0.586670 -0.237398 -27.165306 -7.125000 0.000000 0.000000 74.896458 0.420382 35.349545 -22.904052 33.771670 -7.284920 0.622447 -0.385599 -8.123150 7.125000 0.000000 0.000000 
-34.620784 17.541716 -6.400079 -18.532044 -88.204674 50.814455 -21.829443 -13.253307 -43.244325 0.828978 5.620515 12.133441 -0.017205 4.916187 1.979343 0.003700 0.394000 1.082600 17.956004 21.569894 -51.181782 -2.635665 -12.270056 31.096619 0.920230 -12.711594 -15.001546 -0.336800 -3.729300 10.316200 1.618471 -0.867863 0.665107 -0.441008 -0.505033 -5.125206 5.217285 2.178975 -10.711879 0.019400 0.233300 -5.551900 -76.681119 0.828054 36.123342 22.419039 -32.931761 -7.332768 -0.582799 -0.274984 -27.529884 -7.125000 0.000000 0.000000 74.892782 0.340841 35.332010 -22.887348 33.755621 -7.275502 0.622056 -0.382690 -8.079124 7.125000 0.000000 0.000000 
-34.625431 17.542827 -6.397250 -18.268370 -88.193938 50.598413 -21.917802 -13.158601 -43.289499 0.824898 5.611885 12.106039 -0.002935 4.787776 2.045069 0.004300 0.423000 1.162400 17.905349 21.605881 -51.192711 -2.634562 -12.270106 31.093909 0.919049 -12.720011 -15.050754 -0.340900 -3.751700 10.379200 1.635465 -0.905837 0.725961 -0.359211 -0.525848 -4.893356 5.154792 2.263519 -10.808166 -0.017000 0.265100 -5.610600 -76.721382 0.719528 36.198614 22.322766 -32.856614 -7.291158 -0.585964 -0.232915 -27.228923 -7.125000 0.000000 0.000000 74.813247 0.534819 35.442073 -22.822396 33.697146 -7.242197 0.622272 -0.379538 -8.117627 7.125000 0.000000 0.000000 
-34.630382 17.543736 -6.394016 -18.624726 -88.182823 50.988082 -21.957899 -13.093160 -43.324116 0.821754 5.600951 12.077379 0.007195 4.702251 2.114165 0.003800 0.395500 1.086600 17.873308 21.658967 -51.206284 -2.633428 -12.268957 31.089431 0.926186 -12.776848 -15.089514 -0.338000 -3.736000 10.335200 1.630998 -0.893779 0.703693 -0.399793 -0.519441 -4.984939 5.170741 2.250622 -10.757368 -0.011800 0.261800 -5.579900 -76.712822 0.778964 36.179963 22.379500 -32.904411 -7.316403 -0.584299 -0.252117 -27.387546 -7.125000 0.000000 0.000000 74.833302 0.450498 35.423481 -22.793091 33.671054 -7.232243 0.625732 -0.385842 -8.104493 7.125000 0.000000 0.000000 
-34.635131 17.544747 -6.390783 -18.768323 -88.172788 51.173043 -22.010902 -13.022577 -43.371833 0.818843 5.595063 12.059962 0.018162 4.604488 2.173310 0.003700 0.394900 1.085100 17.838715 21.697997 -51.219252 -2.630584 -12.265094 31.075555 0.930511 -12.814012 -15.118799 -0.337600 -3.734100 10.329900 1.636012 -0.898392 0.714647 -0.391751 -0.521692 -4.958352 5.152773 2.256965 -10.811708 -0.024700 0.259500 -5.618900 -76.729403 0.774012 36.193205 22.379096 -32.907066 -7.316556 -0.584066 -0.250069 -27.379102 -7.125000 0.000000 0.000000 74.813806 0.466375 35.441623 -22.762606 33.643815 -7.217787 0.626162 -0.386051 -8.106641 7.125000 0.000000 0.000000 
-34.639880 17.546060 -6.387146 -19.101522 -88.156044 51.540009 -22.051848 -12.954718 -43.414847 0.816665 5.592018 12.050748 0.028684 4.509179 2.226273 0.003700 0.391300 1.075000 17.828028 21.722599 -51.218405 -2.626475 -12.258397 31.053396 0.934561 -12.845366 -15.135818 -0.337100 -3.731100 10.321400 1.640959 -0.900797 0.726474 -0.396814 -0.522708 -4.939653 5.130154 2.250552 -10.888344 -0.041400 0.248800 -5.672500 -76.740137 0.767878 36.228370 22.364457 -32.896129 -7.309175 -0.584052 -0.245368 -27.334226 -7.125000 0.000000 0.000000 74.798829 0.481099 35.449224 -22.736868 33.621011 -7.205346 0.626043 -0.385791 -8.109902 7.125000 0.000000 0.000000 
